<svg width="131" height="34" viewBox="0 0 131 34" fill="none" xmlns="http://www.w3.org/2000/svg">
<path d="M35.5007 33.6187H31.9334C31.8227 33.6187 31.7366 33.5326 31.7366 33.4219V0.196816C31.7366 0.0861071 31.8227 0 31.9334 0H34.9103C35.3531 0 35.6976 0.356729 35.6976 0.787265V33.4096C35.6976 33.5326 35.6114 33.6187 35.5007 33.6187ZM27.5666 33.6187C27.6773 33.6187 27.7634 33.5326 27.7634 33.4219V0.196816C27.7634 0.0861071 27.6773 0 27.5666 0H23.9993C23.8886 0 23.8025 0.0861071 23.8025 0.196816V33.4219C23.8025 33.5326 23.8886 33.6187 23.9993 33.6187H27.5666V33.6187ZM19.6324 33.6187C19.7431 33.6187 19.8292 33.5326 19.8292 33.4219V0.196816C19.8292 0.0861071 19.7431 0 19.6324 0H16.6556C16.2127 0 15.856 0.356729 15.856 0.799566V33.4219C15.856 33.5326 15.9421 33.6187 16.0528 33.6187H19.6324ZM11.6983 33.6187C11.809 33.6187 11.8951 33.5326 11.8951 33.4219V14.712C11.8951 14.2692 11.5384 13.9247 11.1078 13.9247H8.13097C8.02026 13.9247 7.93416 14.0109 7.93416 14.1216V33.4219C7.93416 33.5326 8.02026 33.6187 8.13097 33.6187H11.6983ZM3.76411 33.6187C3.87482 33.6187 3.96093 33.5326 3.96093 33.4219V14.1216C3.96093 14.0109 3.87482 13.9247 3.76411 13.9247H0.799566C0.35673 13.9247 0 14.2815 0 14.7243V33.4342C0 33.5449 0.0861071 33.631 0.196816 33.631H3.76411" fill="#FF6C2F"/>
<path d="M61.0254 27.0868C61.0254 31.22 58.1962 34 52.673 34C47.2852 34 44.0377 31.3184 43.7671 26.7424C43.7671 26.6686 43.8163 26.6071 43.8901 26.6071H47.1622C47.2237 26.6071 47.2729 26.6563 47.2852 26.7178C47.5804 29.3502 49.0196 30.9986 52.6238 30.9986C56.0558 30.9986 57.5811 29.83 57.5811 27.3944C57.5811 25.008 55.7975 24.2207 52.2794 23.5687C46.3626 22.4863 44.3698 20.8256 44.3698 16.877C44.3698 12.6577 48.503 10.4805 52.0703 10.4805C56.1173 10.4805 59.6108 12.1042 60.2751 16.9016C60.2874 16.9754 60.2259 17.0492 60.152 17.0492H56.9169C56.8554 17.0492 56.8062 17.0123 56.7939 16.9508C56.2526 14.5398 54.8626 13.4819 52.0334 13.4819C49.4256 13.4819 47.728 14.7858 47.728 16.7417C47.728 18.7836 48.8597 19.6078 53.0298 20.3459C57.7164 21.2192 61.0254 22.2648 61.0254 27.0868ZM75.2454 30.4573C74.5073 30.7279 73.6832 30.8755 72.6376 30.8755C70.817 30.8755 69.8083 29.7931 69.8083 27.5666V14.0355C69.8083 13.9617 69.8699 13.9124 69.9314 13.9124H74.9871C75.0609 13.9124 75.1101 13.8509 75.1101 13.7894V10.9971C75.1101 10.9233 75.0486 10.8741 74.9871 10.8741H69.9314C69.8575 10.8741 69.8083 10.8126 69.8083 10.7511V5.83068C69.8083 5.75687 69.7468 5.70767 69.6853 5.70767H66.3272C66.2534 5.70767 66.2041 5.76918 66.2041 5.83068V10.7511C66.2041 10.8249 66.1426 10.8741 66.0811 10.8741H63.0674C62.9936 10.8741 62.9444 10.9356 62.9444 10.9971V13.7894C62.9444 13.8632 63.0059 13.9124 63.0674 13.9124H66.0811C66.1549 13.9124 66.2041 13.974 66.2041 14.0355V27.911C66.2041 31.4783 68.2092 33.9139 72.3301 33.9139C73.757 33.9139 74.6057 33.7171 75.3315 33.4711C75.3807 33.4588 75.4176 33.4096 75.4176 33.348V30.5803C75.4176 30.4819 75.3315 30.4327 75.2454 30.4573ZM96.3662 18.6114V33.4834C96.3662 33.5572 96.3047 33.6064 96.2432 33.6064H92.8851C92.8112 33.6064 92.762 33.5449 92.762 33.4834V31.0847C92.762 30.9617 92.6144 30.9124 92.5406 30.9986C90.8923 32.9544 88.8749 33.9877 85.6767 33.9877C81.4574 33.9877 78.1115 31.9457 78.1115 27.2959C78.1115 22.0311 83.6716 20.2475 89.5023 20.2475H92.639C92.7128 20.2475 92.762 20.186 92.762 20.1245V18.5991C92.762 14.9949 91.372 13.4696 87.8908 13.4696C84.8033 13.4696 83.0688 14.7366 82.6875 17.4428C82.6752 17.5043 82.626 17.5535 82.5645 17.5535H79.2063C79.1325 17.5535 79.071 17.492 79.0833 17.4182C79.6246 12.3502 83.7208 10.4682 88.0754 10.4682C92.4176 10.4805 96.3662 12.2641 96.3662 18.6114ZM92.762 22.9537C92.762 22.8799 92.7005 22.8307 92.639 22.8307H89.6376C85.0739 22.8307 81.728 23.9624 81.728 27.3083C81.728 29.6577 82.8597 31.1339 86.0334 31.1339C89.859 31.1339 92.7743 29.178 92.7743 25.6599V22.9537H92.762ZM109.528 21.5268C109.491 21.4776 109.491 21.4038 109.528 21.3546L119 11.0832C119.074 10.9971 119.012 10.8741 118.902 10.8741H115.027C114.99 10.8741 114.953 10.8864 114.928 10.911L105.752 21.1085C105.678 21.1946 105.531 21.1454 105.531 21.0224V0.12301C105.531 0.0492041 105.469 0 105.407 0H102.049C101.976 0 101.926 0.0615051 101.926 0.12301V33.4834C101.926 33.5572 101.988 33.6064 102.049 33.6064H105.42C105.494 33.6064 105.543 33.5449 105.543 33.4834V22.1664C105.543 22.0434 105.69 21.9942 105.764 22.0803L115.593 33.5572C115.617 33.5818 115.654 33.6064 115.691 33.6064H119.75C119.861 33.6064 119.91 33.4834 119.849 33.3973L109.528 21.5268ZM130.133 9.48408C130.133 11.7844 128.337 13.5557 126.061 13.5557C123.822 13.568 122.014 11.809 122.014 9.50868C122.014 7.2453 123.81 5.44935 126.085 5.44935C128.386 5.44935 130.133 7.2453 130.133 9.48408ZM129.616 9.49638C129.616 7.39291 128.017 5.91679 126.098 5.91679C124.167 5.91679 122.555 7.40521 122.555 9.50868C122.555 11.6491 124.228 13.1006 126.073 13.1006C127.955 13.1006 129.616 11.6245 129.616 9.49638ZM126.737 9.7547L127.955 11.6491H127.082L125.938 9.89002H125.409V11.6491H124.572V7.2822H124.585H126.073C127.033 7.2822 127.697 7.66353 127.697 8.56151V8.58611C127.697 9.27496 127.279 9.63169 126.737 9.7547ZM126.885 8.62301V8.58611C126.885 8.09407 126.59 7.92185 126.073 7.92185H125.421V9.29957L126.073 9.31187C126.602 9.31187 126.885 9.07815 126.885 8.62301Z" fill="#040405"/>
</svg>
